<svg width="143" height="100" viewBox="0 0 143 100" fill="none" xmlns="http://www.w3.org/2000/svg">
<path d="M71.3789 0.00774935C73.2944 0.00774935 75.2098 0.00194894 77.1311 0.00774935C83.9187 0.0297909 88.494 6.71419 86.116 13.1167C85.902 13.6967 85.848 13.706 85.4119 13.2953C80.8896 9.03668 75.5182 7.1469 69.3783 7.72114C64.7765 8.14922 60.7765 10.0634 57.4137 13.2756C56.9535 13.7165 56.9075 13.7083 56.6832 13.0912C54.6147 7.42532 57.9084 1.39289 63.7457 0.173642C64.3666 0.0503683 64.9985 -0.00756048 65.6313 0.000789135C67.5468 0.0135501 69.4623 0.00774935 71.3789 0.00774935Z" fill="#FEFEFE"/>
<path d="M86.9075 70.2473C86.422 70.3065 56.9133 70.3309 55.8008 70.2671C56.1459 70.0548 56.4289 69.8796 56.7131 69.7137C60.1299 67.7114 62.4342 64.8309 63.465 60.9632C63.5801 60.5258 63.7216 60.4504 64.1254 60.6152C67.2953 61.8719 70.7333 62.2823 74.1066 61.8066C75.6858 61.6112 77.2328 61.2084 78.7083 60.6082C79.0316 60.4725 79.2053 60.4817 79.3123 60.8959C80.3799 65.0188 82.8994 67.9724 86.5601 70.0002C86.6774 70.0652 86.7925 70.1325 86.9052 70.2021C86.9156 70.2009 86.9087 70.2299 86.9075 70.2473Z" fill="#FEFEFE"/>
<path d="M71.4238 35.8346C76.618 35.8346 81.8111 35.8439 87.0042 35.8207C87.523 35.8207 87.6438 35.9576 87.6231 36.4576C87.5817 37.4808 87.5782 38.5074 87.6231 39.5295C87.6484 40.0933 87.5253 40.2708 86.9179 40.2684C77.6614 40.2452 68.405 40.2398 59.1486 40.2522C58.0177 40.2522 56.8868 40.2255 55.7571 40.265C55.2601 40.2824 55.1554 40.113 55.1704 39.6478C55.2049 38.5666 55.2026 37.4831 55.1704 36.3996C55.1577 35.9564 55.2624 35.8195 55.7272 35.8195C60.3289 35.8393 64.9307 35.8311 69.5255 35.8311L71.4238 35.8346Z" fill="#FEFEFE"/>
<path d="M63.9321 31.6421C66.0894 30.4251 68.0383 28.8657 69.7038 27.0238C70.1939 26.4832 70.6668 25.9252 71.1085 25.3463C71.3386 25.0516 71.4387 25.025 71.6757 25.337C72.8746 26.9181 74.2621 28.3441 75.8069 29.5829C76.7734 30.3468 77.7951 31.0366 78.8636 31.6467L63.9321 31.6421Z" fill="#FEFEFE"/>
<path d="M91.6312 37.1235C91.6312 35.8474 91.6416 34.5713 91.6243 33.2952C91.6243 32.9414 91.7279 32.8312 92.0845 32.8312C93.2545 32.8404 94.4095 32.8149 95.4656 33.4947C97.0406 34.511 97.8022 36.3601 97.3615 38.2731C96.9727 39.9645 95.4058 41.3288 93.6353 41.4958C93.1222 41.5434 92.5999 41.5063 92.0845 41.5376C91.7255 41.5585 91.6243 41.4111 91.6243 41.0654C91.6439 39.7522 91.6312 38.4378 91.6312 37.1235Z" fill="#FEFEFE"/>
<path d="M51.0253 37.1768C51.0253 38.4123 50.9943 39.649 51.0391 40.8821C51.0598 41.4436 50.8597 41.5434 50.3546 41.5469C49.0811 41.5538 47.88 41.3961 46.8642 40.519C45.448 39.2975 44.9453 37.5028 45.5458 35.7082C46.0807 34.1084 47.6741 32.9356 49.4308 32.8462C51.0253 32.7662 51.0253 32.7662 51.0253 34.3393V37.1768Z" fill="#FEFEFE"/>
<path d="M65.545 25.3973C68.5718 22.5551 70.6115 19.141 71.2892 14.9728C71.311 14.8534 71.3237 14.652 71.3364 14.4437C71.3509 14.2075 71.366 13.9618 71.3961 13.8139C71.4266 13.9629 71.4414 14.2115 71.4556 14.4494C71.4683 14.6615 71.4804 14.8651 71.5027 14.9821C71.5398 15.1602 71.5723 15.3395 71.6051 15.5188C71.6724 15.8869 71.7397 16.2548 71.8448 16.6109C73.5578 22.4113 77.2093 26.482 82.6704 28.9078C84.0979 29.5371 85.632 29.8841 87.1894 29.9298C87.5023 29.9402 87.6369 29.8718 87.6173 29.5238C87.6017 29.2517 87.6052 28.9785 87.6087 28.7052C87.6114 28.4949 87.6141 28.2847 87.6081 28.0748C87.4194 21.7048 84.6262 16.8464 79.1202 13.7362C74.905 11.3545 70.4068 11.0958 65.8568 12.7339C62.0845 14.0912 59.2372 16.5981 57.2527 20.1027C55.5857 23.0458 55.0473 26.2384 55.175 29.5829C55.1853 29.8776 55.2831 29.9437 55.5466 29.9309C56.1607 29.9064 56.7724 29.8378 57.3769 29.7256C60.5268 29.1096 63.2177 27.5829 65.545 25.3973Z" fill="#FEFEFE"/>
<path fill-rule="evenodd" clip-rule="evenodd" d="M86.6901 44.352H71.4594C66.3246 44.3496 61.1883 44.3527 56.0504 44.3612C56.0053 44.3614 55.9568 44.3577 55.9078 44.354C55.6609 44.335 55.402 44.3152 55.5028 44.7905C55.7755 46.0793 56.1482 47.3392 56.7234 48.5155C58.7264 52.5851 61.8107 55.4702 66.0892 56.9644C69.9581 58.3066 73.8431 58.2405 77.5936 56.6164C82.7119 54.4122 85.9457 50.5143 87.2112 45.0155L87.212 45.0122C87.3642 44.352 87.3642 44.352 86.6901 44.352ZM71.0132 52.1954C71.1408 52.1947 71.2685 52.1941 71.3962 52.1941C71.5188 52.1941 71.6415 52.1952 71.7645 52.1963C72.0243 52.1985 72.285 52.2008 72.5466 52.1929C73.6901 52.1721 74.5679 51.3287 74.6174 50.2104C74.6302 49.6724 74.4365 49.1503 74.0769 48.7529C73.7172 48.3554 73.2193 48.1133 72.687 48.077C71.8256 48.0259 70.9621 48.0259 70.1008 48.077C69.5688 48.1127 69.0712 48.3547 68.7122 48.7522C68.3532 49.1496 68.1607 49.6718 68.1749 50.2092C68.2244 51.3264 69.1033 52.1732 70.2457 52.1941C70.5019 52.198 70.7576 52.1967 71.0132 52.1954Z" fill="#FEFEFE"/>
<path d="M61.314 100H64.6963V90.0697L69.5972 99.0719L74.475 90.0697V100H77.8803V84.0604H74.475L69.5972 93.0627L64.6963 84.0604H61.314V100Z" fill="#FEFEFE"/>
<path d="M139.181 100H143L136.558 84.0604H132.761L126.319 100H130.115L131.127 97.4942H138.168L139.181 100ZM131.127 97.4942L134.648 88.7704L138.168 97.4942H131.127Z" fill="#FEFEFE"/>
<path d="M4.92388 100H8.32917V87.1462H13.2531V84.0604H0V87.1462H4.92388V100Z" fill="#FEFEFE"/>
<path d="M30.7092 84.0604V90.3249H23.5074V84.0604H20.1251V100H23.5074V93.4107H30.7092V100H34.0914V84.0604H30.7092Z" fill="#FEFEFE"/>
<path d="M53.9978 84.0604V87.1462H45.2315V90.3249H50.2281V93.4107H45.2315V96.9141H53.9978V100H41.8262V84.0604H53.9978Z" fill="#FEFEFE"/>
<path d="M61.306 100H64.6883V90.0696L69.5891 99.0719L74.467 90.0696V100H77.8723V84.0604H74.467L69.5891 93.0627L64.6883 84.0604H61.306V100Z" fill="#FEFEFE"/>
<path d="M93.8677 100H90.4394V94.2459L84.25 84.0604H88.2075L92.142 91.0441L96.2376 84.0604H100.034L93.8677 94.2459V100Z" fill="#FEFEFE"/>
<path fill-rule="evenodd" clip-rule="evenodd" d="M106.438 100H112.098C117.413 100 121.187 96.6821 121.187 92.0186C121.187 87.355 117.413 84.0604 112.098 84.0604H106.438V87.1697H109.82V91.6361H106.438V100ZM109.821 96.8909L109.82 87.1697L112.536 87.1694C115.55 87.1694 117.69 89.188 117.69 92.0186C117.69 94.8724 115.55 96.8909 112.536 96.8909H109.821Z" fill="#FEFEFE"/>
</svg>
