<svg width="48" height="48" viewBox="0 0 48 48" fill="none" xmlns="http://www.w3.org/2000/svg">
<rect width="48" height="48" rx="8" fill="#303237"/>
<path d="M24.0055 8.00353C23.1247 8.00353 22.2438 8.00089 21.3603 8.00353C18.2388 8.01356 16.1348 11.056 17.2283 13.9702C17.3268 14.2342 17.3516 14.2384 17.5521 14.0515C19.6318 12.1131 22.102 11.253 24.9256 11.5144C27.0418 11.7092 28.8813 12.5804 30.4277 14.0426C30.6393 14.2432 30.6605 14.2395 30.7637 13.9586C31.7149 11.3797 30.2002 8.63399 27.5158 8.07904C27.2303 8.02293 26.9397 7.99656 26.6487 8.00036C25.7678 8.00617 24.8869 8.00353 24.0055 8.00353Z" fill="#F9F9F9"/>
<path d="M16.8644 39.9739C17.0876 40.0008 30.6579 40.0119 31.1694 39.9828C31.0107 39.8862 30.8806 39.8065 30.7499 39.731C29.1786 38.8196 28.1189 37.5085 27.6449 35.7481C27.592 35.549 27.5269 35.5147 27.3412 35.5897C25.8835 36.1617 24.3024 36.3485 22.7511 36.132C22.0249 36.0431 21.3135 35.8597 20.6349 35.5865C20.4863 35.5247 20.4064 35.5289 20.3572 35.7175C19.8662 37.5941 18.7076 38.9384 17.0241 39.8614C16.9702 39.891 16.9173 39.9216 16.8654 39.9533C16.8607 39.9527 16.8638 39.9659 16.8644 39.9739Z" fill="#F9F9F9"/>
<path d="M23.9849 24.3105C21.5962 24.3105 19.2081 24.3148 16.8199 24.3042C16.5813 24.3042 16.5258 24.3665 16.5353 24.5941C16.5543 25.0598 16.5559 25.5271 16.5353 25.9923C16.5237 26.2489 16.5803 26.3297 16.8596 26.3286C21.1164 26.3181 25.3731 26.3156 29.6299 26.3212C30.15 26.3212 30.67 26.3091 31.1896 26.3271C31.4181 26.335 31.4662 26.2579 31.4594 26.0461C31.4435 25.554 31.4446 25.0609 31.4594 24.5677C31.4652 24.366 31.417 24.3037 31.2033 24.3037C29.0871 24.3126 26.9709 24.3089 24.8578 24.3089L23.9849 24.3105Z" fill="#F9F9F9"/>
<path d="M27.4301 22.4022C26.438 21.8483 25.5418 21.1386 24.7758 20.3002C24.5505 20.0541 24.333 19.8001 24.1299 19.5367C24.024 19.4025 23.978 19.3904 23.869 19.5324C23.3177 20.2521 22.6796 20.9011 21.9692 21.465C21.5248 21.8127 21.0549 22.1267 20.5635 22.4044L27.4301 22.4022Z" fill="#F9F9F9"/>
<path d="M14.6921 24.8972C14.6921 24.3163 14.6873 23.7355 14.6952 23.1547C14.6952 22.9936 14.6476 22.9435 14.4836 22.9435C13.9456 22.9477 13.4144 22.9361 12.9287 23.2455C12.2045 23.7081 11.8542 24.5497 12.0568 25.4204C12.2357 26.1903 12.9562 26.8113 13.7705 26.8873C14.0064 26.9089 14.2466 26.892 14.4836 26.9063C14.6487 26.9158 14.6952 26.8487 14.6952 26.6914C14.6862 26.0937 14.6921 25.4954 14.6921 24.8972Z" fill="#F9F9F9"/>
<path d="M33.3656 24.9215C33.3656 25.4838 33.3798 26.0467 33.3592 26.608C33.3497 26.8635 33.4417 26.9089 33.674 26.9105C34.2597 26.9137 34.812 26.8419 35.2791 26.4427C35.9304 25.8867 36.1616 25.0698 35.8854 24.253C35.6394 23.5248 34.9067 22.991 34.0988 22.9503C33.3656 22.9139 33.3656 22.9139 33.3656 23.6299V24.9215Z" fill="#F9F9F9"/>
<path d="M26.6884 19.5599C25.2964 18.2662 24.3584 16.7122 24.0468 14.8151L24.0466 14.8148C24.0366 14.7604 24.0309 14.669 24.0251 14.5742C24.0184 14.4667 24.0115 14.3549 23.9976 14.2876C23.9836 14.3554 23.9768 14.4685 23.9703 14.5768C23.9644 14.6733 23.9588 14.766 23.9486 14.8193H23.9487C23.9317 14.9003 23.9166 14.982 23.9015 15.0636C23.8706 15.2311 23.8396 15.3986 23.7913 15.5606C23.0035 18.2007 21.3243 20.0536 18.8129 21.1577C18.1564 21.4441 17.4509 21.6021 16.7347 21.6229C16.5908 21.6276 16.5289 21.5965 16.5379 21.4381C16.5451 21.3142 16.5435 21.1899 16.5419 21.0655C16.5407 20.9698 16.5394 20.8741 16.5422 20.7786C16.6289 17.8792 17.9135 15.6678 20.4455 14.2522C22.384 13.1681 24.4526 13.0504 26.545 13.796C28.2798 14.4138 29.5892 15.5548 30.5018 17.15C31.2684 18.4896 31.516 19.9427 31.4573 21.465C31.4525 21.5991 31.4075 21.6292 31.2864 21.6234C31.0039 21.6122 30.7226 21.581 30.4446 21.5299C28.9961 21.2496 27.7586 20.5547 26.6884 19.5599Z" fill="#F9F9F9"/>
<path fill-rule="evenodd" clip-rule="evenodd" d="M16.9644 28.1873H23.9685C26.3298 28.1862 28.6919 28.1876 31.0546 28.1915C31.0754 28.1916 31.0977 28.1899 31.1203 28.1882C31.2338 28.1796 31.3528 28.1706 31.3065 28.3869C31.1811 28.9735 31.0097 29.547 30.7452 30.0824C29.8241 31.9347 28.4057 33.2479 26.4381 33.928C24.6589 34.5389 22.8723 34.5088 21.1476 33.7696C18.7938 32.7663 17.3067 30.9922 16.7247 28.4893L16.7243 28.4878C16.6543 28.1873 16.6543 28.1873 16.9644 28.1873ZM24.1737 31.7573C24.115 31.757 24.0563 31.7567 23.9976 31.7567C23.9412 31.7567 23.8847 31.7572 23.8282 31.7577C23.7087 31.7587 23.5889 31.7598 23.4685 31.7562C22.9427 31.7467 22.539 31.3628 22.5162 30.8538C22.5104 30.609 22.5994 30.3713 22.7648 30.1904C22.9302 30.0095 23.1592 29.8993 23.404 29.8828C23.8001 29.8595 24.1972 29.8595 24.5933 29.8828C24.8379 29.899 25.0668 30.0092 25.2319 30.1901C25.397 30.371 25.4855 30.6087 25.4789 30.8533C25.4562 31.3618 25.052 31.7472 24.5266 31.7567C24.4088 31.7585 24.2912 31.7579 24.1737 31.7573Z" fill="#F9F9F9"/>
</svg>
