<svg width="26" height="26" viewBox="0 0 26 26" fill="none" xmlns="http://www.w3.org/2000/svg">
<path fill-rule="evenodd" clip-rule="evenodd" d="M3.52081 13C3.52081 7.76481 7.76478 3.52084 13 3.52084C18.2352 3.52084 22.4791 7.76481 22.4791 13C22.4791 18.2352 18.2352 22.4792 13 22.4792C7.76478 22.4792 3.52081 18.2352 3.52081 13ZM11.754 10.0845C10.7426 10.9165 10.0669 12.0868 9.85203 13.3787L9.14059 17.6558C8.97635 18.6432 10.1245 19.3061 10.8975 18.6702L14.2459 15.9155C15.2572 15.0834 15.9329 13.9132 16.1478 12.6213L16.8592 8.34417C17.0235 7.35674 15.8753 6.69386 15.1023 7.32982L11.754 10.0845Z" fill="white"/>
<path d="M11.375 13C11.375 12.1025 12.1025 11.375 13 11.375C13.8974 11.375 14.625 12.1025 14.625 13C14.625 13.8975 13.8974 14.625 13 14.625C12.1025 14.625 11.375 13.8975 11.375 13Z" fill="white"/>
</svg>
