<svg width="9" height="12" viewBox="0 0 14 12" fill="none" xmlns="http://www.w3.org/2000/svg">
<path d="M0.58667 8.66667V5.19883C0.58667 4.2655 0.98667 3.93216 1.92 3.93216H2.58667C3.52 3.93216 3.92 4.2655 3.92 5.19883V8.66667C3.92 9.6 3.52 9.93333 2.58667 9.93333H1.92C0.98667 9.93333 0.58667 9.6 0.58667 8.66667Z" fill="#FF6861"/>
<path d="M6.5 11C6.72633 11.2567 8.15626 12 8.49575 12H10.6459C11.3248 12 12.0604 11.4225 12.2301 10.6526L13.5881 5.96857C13.871 5.07027 13.3618 4.3003 12.513 4.3003H10.2498C9.91029 4.3003 9.62738 3.97948 9.68396 3.53033L9.96687 1.47707C10.08 0.899594 9.74055 0.257952 9.23131 0.0654596C8.77866 -0.127033 8.21284 0.129624 7.98652 0.514609L5.27059 3.664C5.11672 3.84243 4.97174 4.03106 4.87951 4.24786C4.73953 4.57688 4.66667 4.93186 4.66667 5.29182V9C4.66667 9.76742 5.9233 10.4937 6.5 11Z" fill="#FF6861"/>
</svg>
