<svg width="24" height="24" viewBox="0 0 24 24" fill="none" xmlns="http://www.w3.org/2000/svg">
<rect width="24" height="24" rx="6" fill="#303237"/>
<path fill-rule="evenodd" clip-rule="evenodd" d="M4.70831 12C4.70831 7.97292 7.9729 4.70833 12 4.70833C16.0271 4.70833 19.2916 7.97292 19.2916 12C19.2916 16.0271 16.0271 19.2917 12 19.2917C7.9729 19.2917 4.70831 16.0271 4.70831 12ZM11.0415 9.75729C10.2635 10.3973 9.74378 11.2975 9.57848 12.2913L9.03122 15.5814C8.90488 16.3409 9.78806 16.8509 10.3827 16.3617L12.9584 14.2427C13.7363 13.6026 14.2561 12.7024 14.4214 11.7087L14.9686 8.41859C15.095 7.65902 14.2118 7.14911 13.6172 7.63831L11.0415 9.75729Z" fill="white"/>
<path d="M10.75 12C10.75 11.3096 11.3096 10.75 12 10.75C12.6903 10.75 13.25 11.3096 13.25 12C13.25 12.6904 12.6903 13.25 12 13.25C11.3096 13.25 10.75 12.6904 10.75 12Z" fill="white"/>
</svg>
